<svg width="217" height="38" viewBox="0 0 217 38" fill="none" xmlns="http://www.w3.org/2000/svg">
    <path
        d="M27.24 0.949999H27.825L29.355 24.35C29.355 24.47 29.355 24.605 29.355 24.755C29.385 24.875 29.4 25.01 29.4 25.16C29.4 27.53 28.77 29.645 27.51 31.505C26.25 33.335 24.54 34.775 22.38 35.825C20.25 36.875 17.865 37.4 15.225 37.4C12.405 37.4 10.005 36.8 8.025 35.6C6.075 34.4 4.575 32.81 3.525 30.83C2.505 28.85 1.95 26.69 1.86 24.35L0.96 1.4H9.285L7.935 23.99C7.935 24.17 7.92 24.35 7.89 24.53C7.89 24.68 7.89 24.83 7.89 24.98C7.89 27.77 8.565 29.99 9.915 31.64C11.265 33.26 13.035 34.07 15.225 34.07C16.425 34.07 17.52 33.635 18.51 32.765C19.53 31.865 20.4 30.635 21.12 29.075C21.87 27.485 22.44 25.67 22.83 23.63L27.24 0.949999ZM37.3467 1.4H45.5367L45.4467 5.54C46.7367 4.19 48.1767 3.17 49.7667 2.48C51.3567 1.76 52.9917 1.4 54.6717 1.4C56.4717 1.4 58.1217 1.82 59.6217 2.66C61.1517 3.47 62.4717 4.61 63.5817 6.08C64.6917 7.52 65.5467 9.185 66.1467 11.075C66.7467 12.965 67.0467 14.975 67.0467 17.105C67.0467 19.295 66.7167 21.44 66.0567 23.54C64.6767 27.95 61.7817 31.31 57.3717 33.62C52.9617 35.93 46.8417 37.085 39.0117 37.085L37.3467 1.4ZM44.8167 34.565C49.1967 33.125 52.4967 31.43 54.7167 29.48C56.9367 27.53 58.3167 25.64 58.8567 23.81C59.3367 22.16 59.5767 20.375 59.5767 18.455C59.5767 16.445 59.3217 14.525 58.8117 12.695C58.3017 10.865 57.5817 9.35 56.6517 8.15C55.7517 6.95 54.7167 6.275 53.5467 6.125C52.9167 6.035 52.3017 5.99 51.7017 5.99C50.6517 5.99 49.6017 6.125 48.5517 6.395C47.5017 6.635 46.4517 7.04 45.4017 7.61L44.8167 34.565ZM73.5577 1.4H81.7477L81.6577 5.54C82.9477 4.19 84.3877 3.17 85.9777 2.48C87.5677 1.76 89.2027 1.4 90.8827 1.4C92.6827 1.4 94.3327 1.82 95.8327 2.66C97.3627 3.47 98.6827 4.61 99.7927 6.08C100.903 7.52 101.758 9.185 102.358 11.075C102.958 12.965 103.258 14.975 103.258 17.105C103.258 19.295 102.928 21.44 102.268 23.54C100.888 27.95 97.9927 31.31 93.5827 33.62C89.1727 35.93 83.0527 37.085 75.2227 37.085L73.5577 1.4ZM81.0277 34.565C85.4077 33.125 88.7077 31.43 90.9277 29.48C93.1477 27.53 94.5277 25.64 95.0677 23.81C95.5477 22.16 95.7877 20.375 95.7877 18.455C95.7877 16.445 95.5327 14.525 95.0227 12.695C94.5127 10.865 93.7927 9.35 92.8627 8.15C91.9627 6.95 90.9277 6.275 89.7577 6.125C89.1277 6.035 88.5127 5.99 87.9127 5.99C86.8627 5.99 85.8127 6.125 84.7627 6.395C83.7127 6.635 82.6627 7.04 81.6127 7.61L81.0277 34.565ZM131.144 36.5L130.514 19.4L117.374 21.245L116.834 36.5H111.029L109.769 1.4H118.094L117.599 15.305L130.469 17.6L129.884 1.4H138.299L137.039 36.5H131.144ZM173.424 37.085L154.884 20.57L154.929 19.94C156.699 19.58 158.289 18.95 159.699 18.05C161.139 17.12 162.339 16.07 163.299 14.9C164.289 13.7 164.979 12.515 165.369 11.345C165.639 10.565 165.774 9.83 165.774 9.14C165.774 7.97 165.369 7.01 164.559 6.26C163.749 5.51 162.504 5.135 160.824 5.135C158.754 5.135 156.579 5.42 154.299 5.99L153.624 36.5H147.864L146.199 1.4H154.389L154.344 3.875C155.754 3.095 157.179 2.495 158.619 2.075C160.089 1.625 161.499 1.4 162.849 1.4C165.369 1.4 167.379 1.82 168.879 2.66C170.379 3.47 171.459 4.505 172.119 5.765C172.809 6.995 173.154 8.27 173.154 9.59C173.154 10.49 173.019 11.33 172.749 12.11C172.329 13.4 171.594 14.57 170.544 15.62C169.524 16.64 168.339 17.495 166.989 18.185C165.669 18.875 164.364 19.385 163.074 19.715L174.009 37.13L173.424 37.085ZM186.757 36.5L185.542 6.575L176.182 7.79V0.949999L204.037 3.515V4.145L193.822 5.495L192.607 36.5H186.757ZM209.338 36.5L208.078 1.4H216.538L215.278 36.5H209.338Z"
        fill="#FE9E0D" />
</svg>
    